<mxfile host="app.diagrams.net" modified="2024-02-29T02:22:22.162Z" agent="Mozilla/5.0 (X11; Linux x86_64) AppleWebKit/537.36 (KHTML, like Gecko) Chrome/119.0.0.0 Safari/537.36" version="23.1.8" etag="uur-U13-__53JC85QaSh" type="github">
  <diagram name="第 1 页" id="AE87sw3330aqLrzJ9DGR">
    <mxGraphModel>
      <root>
        <mxCell id="0" />
        <mxCell id="1" parent="0" />
      </root>
    </mxGraphModel>
  </diagram>
</mxfile>
